<?xml version="1.0" encoding="UTF-8"?>
<svg version="1.1" xmlns="http://www.w3.org/2000/svg" width="1024" height="1024">
<path d="M0 0 C337.92 0 675.84 0 1024 0 C1024 337.92 1024 675.84 1024 1024 C686.08 1024 348.16 1024 0 1024 C0 686.08 0 348.16 0 0 Z " fill="slate-950" transform="translate(0,0)"/>
<path d="M0 0 C9.26323055 1.29981388 17.14530036 9.08413605 23 16 C30.58186944 26.0933637 36.11826679 37.98954737 36.1328125 50.76171875 C36.13474609 51.87313232 36.13667969 52.9845459 36.13867188 54.12963867 C36.13416016 55.30373291 36.12964844 56.47782715 36.125 57.6875 C36.12306641 58.88673096 36.12113281 60.08596191 36.11914062 61.3215332 C36.07293861 70.90781027 35.69976786 80.44067115 35 90 C41.44602841 86.08463459 46.92676461 81.52487883 52.421875 76.3671875 C57.578125 71.6328125 57.578125 71.6328125 60 70 C64.48971861 70.56511602 67.10102649 73.49817052 70.25 76.5 C70.8277417 77.045354 71.4054834 77.59070801 72.00073242 78.15258789 C83.42103376 89.0393348 92.33271438 101.13598042 98 116 C98.39316406 117.00160156 98.78632813 118.00320313 99.19140625 119.03515625 C106.1674238 140.2062757 103.23319345 164.45148647 93.43359375 184.1484375 C89.46887768 191.30516395 84.70472187 197.16308315 79 203 C78.39027344 203.63679687 77.78054688 204.27359375 77.15234375 204.9296875 C73.69409801 208.47458633 70.05010422 211.75194898 66.30078125 214.984375 C63.4922698 217.44480269 60.74538121 219.96974992 58 222.5 C54.08692374 226.10349553 50.13565053 229.65175586 46.11328125 233.1328125 C43.9555677 235.03925812 41.84102481 236.98872149 39.72949219 238.94604492 C35.34274822 243.01121472 30.91673595 246.93987155 26.25 250.6875 C22.20431057 253.94378662 18.52318147 257.36884029 14.90234375 261.0859375 C11.75909907 264.24854508 8.42903741 267.15325196 5 270 C3.5459375 271.2375 3.5459375 271.2375 2.0625 272.5 C-2.20075726 274.58812601 -5.46981575 274.28489752 -10 273 C-12.77650394 271.24593326 -14.92561353 269.05389608 -17.1875 266.6875 C-18.49096688 265.39718617 -19.79701153 264.1094718 -21.10546875 262.82421875 C-21.75563965 262.17759277 -22.40581055 261.5309668 -23.07568359 260.86474609 C-25.93113248 258.09769222 -28.95011847 255.54843021 -32 253 C-37.77400459 248.13041696 -43.31091472 243.04291203 -48.80981445 237.8659668 C-52.46998597 234.42124093 -56.17024564 231.04848142 -59.98046875 227.76953125 C-62.69486324 225.39115464 -65.34567494 222.94485921 -68 220.5 C-71.36543023 217.40213192 -74.74018862 214.31943627 -78.1875 211.3125 C-78.81269531 210.76335937 -79.43789062 210.21421875 -80.08203125 209.6484375 C-81.41313065 208.50439687 -82.7666428 207.38612515 -84.13671875 206.2890625 C-98.60904165 194.31719329 -108.63902141 175.88233522 -110.79711914 157.2331543 C-112.95586712 133.47133989 -108.34847457 111.2836076 -92.95703125 92.5078125 C-78.18977828 76.09975364 -60.75726546 66.61208307 -41.26708984 56.88476562 C-27.8893734 50.37490463 -27.8893734 50.37490463 -16.29785156 41.26904297 C-15 40 -15 40 -13 40 C-12.7525 39.443125 -12.505 38.88625 -12.25 38.3125 C-11 36 -11 36 -9.125 33.75 C-1.28492062 23.60401492 -0.61065725 12.34170438 0 0 Z " fill="#FE4A32" transform="translate(204,369)"/>
<path d="M0 0 C3.51941067 2.52499385 6.93387318 5.02371693 10 8.08984375 C10.4846875 7.6309375 10.969375 7.17203125 11.46875 6.69921875 C20.5113936 -1.57827808 29.44653387 -5.3949422 41.81640625 -5.15625 C49.45873202 -4.56549353 55.48821805 -1.18279064 61 4.08984375 C66.46994052 10.95147268 69.58156083 17.19782927 69.3671875 26.05859375 C68.08905206 36.6100097 62.31856363 43.83097477 55 51.08984375 C54.24074219 51.87359375 53.48148437 52.65734375 52.69921875 53.46484375 C43.07593476 63.30419456 43.07593476 63.30419456 38 67.08984375 C37.34 67.08984375 36.68 67.08984375 36 67.08984375 C36 67.74984375 36 68.40984375 36 69.08984375 C34.7421875 70.39453125 34.7421875 70.39453125 32.875 71.96484375 C32.15828125 72.57457031 31.4415625 73.18429687 30.703125 73.8125 C29.36507812 74.93978516 29.36507812 74.93978516 28 76.08984375 C26.17383069 77.64809889 24.35049747 79.20962086 22.52783203 80.77197266 C21.2696792 81.84997427 20.01025872 82.92649832 18.74951172 84.00146484 C16.43606293 85.97723038 14.15220177 87.93764198 12 90.08984375 C8.4611516 90.00544191 7.08261217 89.16121869 4.38671875 86.83203125 C3.49597656 85.88585937 2.60523438 84.9396875 1.6875 83.96484375 C-2.06370989 80.05835502 -5.87319151 76.33885629 -9.98828125 72.81640625 C-14.06221249 69.31994488 -18.01951615 65.69178014 -22 62.08984375 C-23.00769696 61.18867287 -24.01551312 60.28763526 -25.0234375 59.38671875 C-46.29763373 40.27077431 -46.29763373 40.27077431 -47.2734375 27.515625 C-47.61859077 17.68413123 -46.82688922 11.37421377 -39.98046875 3.87890625 C-28.97447031 -6.79941798 -13.05598878 -8.31299285 0 0 Z " fill="white" transform="translate(189,494.91015625)"/>
<path d="M0 0 C27.72 0 55.44 0 84 0 C84 8.58 84 17.16 84 26 C65.52 26 47.04 26 28 26 C28 36.56 28 47.12 28 58 C43.18 58 58.36 58 74 58 C74 65.59 74 73.18 74 81 C58.82 81 43.64 81 28 81 C28 99.48 28 117.96 28 137 C18.76 137 9.52 137 0 137 C0 91.79 0 46.58 0 0 Z " fill="white" transform="translate(625,445)"/>
<path d="M0 0 C1.10794922 -0.01611328 2.21589844 -0.03222656 3.35742188 -0.04882812 C15.78528636 -0.05609163 27.36169341 2.27984552 36.90234375 10.71875 C43.36703634 17.79257775 45.4435225 26.73955331 45.42602539 36.03051758 C45.42617142 36.68473694 45.42631744 37.3389563 45.4264679 38.01300049 C45.42577494 40.16104526 45.41801164 42.30900175 45.41015625 44.45703125 C45.40828988 45.95204114 45.40686701 47.44705165 45.40586853 48.94206238 C45.40206064 52.86621811 45.39224518 56.7903365 45.38116455 60.71447754 C45.37091321 64.72305801 45.36636294 68.73164455 45.36132812 72.74023438 C45.35062129 80.59767525 45.33303856 88.45507867 45.3125 96.3125 C37.7225 96.3125 30.1325 96.3125 22.3125 96.3125 C21.9825 93.0125 21.6525 89.7125 21.3125 86.3125 C20.405 87.199375 19.4975 88.08625 18.5625 89 C10.34631414 95.91802849 1.55350919 98.1189783 -9.0625 97.73828125 C-20.03444131 96.44955107 -27.96323532 91.57670076 -35.171875 83.41015625 C-40.13948829 76.53487703 -39.77841734 67.4435488 -38.6875 59.3125 C-36.06732768 51.1528295 -30.03158975 46.30119625 -22.6875 42.3125 C-10.44287783 36.82771883 5.55627853 36.44263506 18.3125 40.3125 C19.66121903 40.94746394 20.99997118 41.60575371 22.3125 42.3125 C21.35551267 33.67846013 21.35551267 33.67846013 17.3125 26.3125 C12.91411905 23.45501526 8.5651383 21.73271106 3.3125 21.3125 C2.58417969 21.24933594 1.85585938 21.18617188 1.10546875 21.12109375 C-11.61215808 20.50023323 -20.94258869 26.9656653 -30.6875 34.3125 C-32.2314119 25.99336307 -33.16994596 17.75680279 -33.6875 9.3125 C-31.50373234 8.17972732 -29.31592872 7.05627211 -27.125 5.9375 C-26.51591797 5.62039063 -25.90683594 5.30328125 -25.27929688 4.9765625 C-16.85579709 0.69795944 -9.35992562 -0.02675793 0 0 Z " fill="white" transform="translate(462.6875,485.6875)"/>
<path d="M0 0 C27.72 0 55.44 0 84 0 C84 8.58 84 17.16 84 26 C65.19 26 46.38 26 27 26 C27 36.56 27 47.12 27 58 C41.85 58 56.7 58 72 58 C72 65.59 72 73.18 72 81 C57.15 81 42.3 81 27 81 C27 99.15 27 117.3 27 136 C18.09 136 9.18 136 0 136 C0 91.12 0 46.24 0 0 Z " fill="white" transform="translate(341,445)"/>
<path d="M0 0 C2.671875 1.68359375 2.671875 1.68359375 4.9375 3.375 C5.60265625 3.81972656 6.2678125 4.26445312 6.953125 4.72265625 C16.81168073 12.07370976 21.60829158 24.7289579 23.9375 36.375 C23.9375 41.325 23.9375 46.275 23.9375 51.375 C2.4875 51.375 -18.9625 51.375 -41.0625 51.375 C-38.2909814 63.14428434 -38.2909814 63.14428434 -29.9375 70.1875 C-21.53829778 73.23016111 -13.18417002 73.04285098 -5.0625 69.375 C-2.64045488 67.94309911 -0.34771617 66.4286715 1.9296875 64.77734375 C3.9375 63.375 3.9375 63.375 7.9375 61.375 C12.5575 65.995 17.1775 70.615 21.9375 75.375 C17.14140968 84.96718064 7.5119825 90.13101496 -2.32421875 93.48828125 C-6.56696064 94.49465785 -10.40899641 94.72001688 -14.75 94.6875 C-15.54092041 94.68186035 -16.33184082 94.6762207 -17.14672852 94.67041016 C-29.38645575 94.41891744 -40.48793993 91.07295206 -49.875 82.9375 C-50.596875 82.091875 -51.31875 81.24625 -52.0625 80.375 C-52.54074219 79.87484375 -53.01898437 79.3746875 -53.51171875 78.859375 C-63.6775888 67.89969646 -66.43313861 53.92340014 -66.0625 39.375 C-64.49275127 26.18062552 -58.96840681 15.25461917 -49.0625 6.375 C-35.4146755 -3.11532526 -15.71186621 -7.64577438 0 0 Z " fill="white" transform="translate(877.0625,488.625)"/>
<path d="M0 0 C8.25 0 16.5 0 25 0 C25.03738281 3.92648437 25.07476563 7.85296875 25.11328125 11.8984375 C25.15956522 15.7245015 25.21077405 19.55047033 25.26245117 23.37646484 C25.29559222 26.02419189 25.3236574 28.67198774 25.34643555 31.31982422 C25.38018017 35.13799206 25.43250788 38.95553543 25.48828125 42.7734375 C25.49467117 43.94675629 25.5010611 45.12007507 25.50764465 46.32894897 C25.68533289 58.67785231 25.68533289 58.67785231 31.625 69.0625 C36.60246946 71.91993617 40.74638536 72.55549518 46.40234375 71.58984375 C52.04558803 70.02175424 54.78745514 67.86749221 58 63 C59.78591256 59.25245374 60.26476142 56.24575109 60.31884766 52.1081543 C60.33871735 50.94732834 60.35858704 49.78650238 60.37905884 48.59049988 C60.39061005 47.34762711 60.40216125 46.10475433 60.4140625 44.82421875 C60.43342865 43.54392288 60.4527948 42.26362701 60.4727478 40.9445343 C60.52393948 37.5531222 60.56363407 34.16167055 60.60089111 30.77008057 C60.64101249 27.3043042 60.69206758 23.83869052 60.7421875 20.37304688 C60.83818158 13.58212718 60.9222351 6.79115192 61 0 C68.92 0 76.84 0 85 0 C85 31.02 85 62.04 85 94 C77.08 94 69.16 94 61 94 C60.505 89.545 60.505 89.545 60 85 C59.45472656 85.47050781 58.90945313 85.94101562 58.34765625 86.42578125 C49.9941032 93.32281736 43.15317885 95.63953981 32.27734375 95.34765625 C22.87674295 94.35045307 14.29871522 90.26592615 8.28125 82.89453125 C0.23822968 71.44111261 -0.15189784 60.61555439 -0.09765625 46.97265625 C-0.0957884 45.61502637 -0.09436623 44.25739581 -0.09336853 42.89976501 C-0.08957222 39.34717916 -0.07976696 35.79463496 -0.06866455 32.24206543 C-0.05838801 28.60864831 -0.0538576 24.97522438 -0.04882812 21.34179688 C-0.03814177 14.22784603 -0.02056872 7.11393014 0 0 Z " fill="white" transform="translate(715,488)"/>
<path d="M0 0 C2.265625 1.390625 2.265625 1.390625 4.375 2.9375 C5.11234375 3.46859375 5.8496875 3.9996875 6.609375 4.546875 C13.60256147 10.11079708 16.21289343 16.41548211 18.375 24.9375 C18.61550903 28.36082458 18.61550903 28.36082458 18.60205078 31.97436523 C18.60234283 32.63863022 18.60263489 33.3028952 18.60293579 33.98728943 C18.60155563 36.15702932 18.58605749 38.32641474 18.5703125 40.49609375 C18.56657768 42.01066399 18.56373292 43.52523665 18.56173706 45.03981018 C18.55413751 49.00673206 18.53452107 52.97350515 18.5123291 56.94036865 C18.49179101 60.99603259 18.48271838 65.05172081 18.47265625 69.10742188 C18.4512713 77.0508568 18.4161196 84.99414269 18.375 92.9375 C10.455 92.9375 2.535 92.9375 -5.625 92.9375 C-5.6343457 91.20258301 -5.64369141 89.46766602 -5.65332031 87.68017578 C-5.68901231 81.91247997 -5.74291381 76.14510423 -5.80890274 70.37768745 C-5.84821294 66.88491209 -5.88048092 63.3923826 -5.89599609 59.89941406 C-5.91420428 55.87264638 -5.96422617 51.84679439 -6.015625 47.8203125 C-6.01685364 46.58137238 -6.01808228 45.34243225 -6.01934814 44.06594849 C-6.14158263 36.74829793 -6.8750823 30.35958205 -10.625 23.9375 C-13.06709319 21.81637015 -13.06709319 21.81637015 -15.625 20.9375 C-16.285 20.6075 -16.945 20.2775 -17.625 19.9375 C-23.18379415 19.42988556 -28.05848556 19.22294955 -33.1875 21.5625 C-38.83427438 27.0644853 -39.71688881 33.35351054 -39.83032227 40.92114258 C-39.85026749 42.10198929 -39.87021271 43.282836 -39.89076233 44.49946594 C-39.90747482 45.76421249 -39.92418732 47.02895905 -39.94140625 48.33203125 C-39.96218735 49.63452316 -39.98296844 50.93701508 -40.00437927 52.27897644 C-40.05938184 55.72959263 -40.10888659 59.18026635 -40.15722656 62.63098145 C-40.20760164 66.15703406 -40.26320387 69.68300387 -40.31835938 73.20898438 C-40.4256738 80.11841919 -40.52669377 87.02793121 -40.625 93.9375 C-48.875 93.9375 -57.125 93.9375 -65.625 93.9375 C-65.625 62.9175 -65.625 31.8975 -65.625 -0.0625 C-57.375 -0.0625 -49.125 -0.0625 -40.625 -0.0625 C-40.295 2.9075 -39.965 5.8775 -39.625 8.9375 C-38.965 8.215625 -38.305 7.49375 -37.625 6.75 C-28.16071586 -2.74132495 -12.33101104 -5.88569385 0 0 Z " fill="white" transform="translate(589.625,488.0625)"/>
<path d="M0 0 C8.25 0 16.5 0 25 0 C25 44.88 25 89.76 25 136 C16.75 136 8.5 136 0 136 C0 91.12 0 46.24 0 0 Z " fill="white" transform="translate(912,445)"/>
<path d="M0 0 C0.30744405 5.84143689 -0.00561289 9.78397085 -3 15 C-7.48376297 19.92534569 -11.89600626 22.606803 -18.609375 23.25 C-23.29042851 23.45242394 -26.30232342 23.34271832 -30.5625 21.25 C-33.40083339 18.62999995 -34.85316689 16.70999393 -35.1875 12.81640625 C-34.82632041 8.47472663 -34.40154894 6.47182001 -31.5 3.0625 C-22.59352967 -3.07259832 -10.1104708 -1.5261088 0 0 Z " fill="white" transform="translate(485,541)"/>
<path d="M0 0 C4.64526358 2.67995976 8.02815728 5.65346778 10.625 10.375 C11.25 12.875 11.25 12.875 11.25 18.875 C-2.28 18.875 -15.81 18.875 -29.75 18.875 C-28.69266561 10.41632484 -27.7692788 8.14770158 -21.75 2.875 C-15.00272397 -2.08787245 -7.87069611 -2.36120883 0 0 Z " fill="white" transform="translate(865.75,505.125)"/>
<path d="M0 0 C7.92 0 15.84 0 24 0 C24 3.63 24 7.26 24 11 C23.67 11 23.34 11 23 11 C23 8.03 23 5.06 23 2 C16.07 2 9.14 2 2 2 C2 31.7 2 61.4 2 92 C1.34 92 0.68 92 0 92 C0 61.64 0 31.28 0 0 Z " fill="white" transform="translate(524,488)"/>
<path d="M0 0 C8.25 0 16.5 0 25 0 C25 19.47 25 38.94 25 59 C24.67 59 24.34 59 24 59 C24 40.19 24 21.38 24 2 C16.74 2 9.48 2 2 2 C2 22.46 2 42.92 2 64 C-0.32441815 60.51337277 -0.24401741 59.17422077 -0.22705078 55.05981445 C-0.22689972 53.83877518 -0.22674866 52.6177359 -0.22659302 51.35969543 C-0.21627045 50.04087875 -0.20594788 48.72206207 -0.1953125 47.36328125 C-0.19158161 45.99993599 -0.188735 44.63658804 -0.18673706 43.27323914 C-0.17910653 39.68765846 -0.15946315 36.10224021 -0.1373291 32.51672363 C-0.11685811 28.85687456 -0.10773267 25.19699921 -0.09765625 21.53710938 C-0.07621658 14.35799035 -0.04103931 7.17903864 0 0 Z " fill="white" transform="translate(715,488)"/>
<path d="M0 0 C1.99554377 3.63310832 1.89879729 4.9554122 1 9 C0.97261272 10.4789131 0.97518526 11.9585415 1 13.4375 C1.04860292 17.07056792 0.73277773 20.42770856 0 24 C0.66 24 1.32 24 2 24 C2 25.65 2 27.3 2 29 C1.01 28.67 0.02 28.34 -1 28 C-1.83602203 18.36315148 -2.47750841 9.48005282 0 0 Z " fill="white" transform="translate(813,517)"/>
<path d="M0 0 C0.66 0.33 1.32 0.66 2 1 C0.56351736 2.12629875 -0.87422585 3.2509899 -2.3125 4.375 C-3.11300781 5.00148438 -3.91351563 5.62796875 -4.73828125 6.2734375 C-6.44663212 7.57756718 -8.21172726 8.80781817 -10 10 C-10 7.69 -10 5.38 -10 3 C-9.195625 3.37125 -9.195625 3.37125 -8.375 3.75 C-4.71245136 4.13553144 -2.84242621 2.13181966 0 0 Z " fill="white" transform="translate(442,510)"/>
<path d="M0 0 C0.99 0 1.98 0 3 0 C3.05447047 1.41623216 3.09300508 2.83308191 3.125 4.25 C3.14820313 5.03890625 3.17140625 5.8278125 3.1953125 6.640625 C3 9 3 9 1 13 C0.67 8.71 0.34 4.42 0 0 Z " fill="white" transform="translate(430,504)"/>
<path d="M0 0 C2 2 2 2 2.125 4.625 C2.08375 5.40875 2.0425 6.1925 2 7 C1.01 7 0.02 7 -1 7 C-0.67 4.69 -0.34 2.38 0 0 Z " fill="white" transform="translate(506,513)"/>
</svg>
